<?xml version="1.0" standalone="no"?>
<!DOCTYPE svg PUBLIC "-//W3C//DTD SVG 20010904//EN"
 "http://www.w3.org/TR/2001/REC-SVG-20010904/DTD/svg10.dtd">
<svg version="1.0" xmlns="http://www.w3.org/2000/svg"
 width="350.000000pt" height="350.000000pt" viewBox="0 0 350.000000 350.000000"
 preserveAspectRatio="xMidYMid meet">
<metadata>
Created by potrace 1.11, written by Peter Selinger 2001-2013
</metadata>
<g transform="translate(0.000000,350.000000) scale(0.100000,-0.100000)"
fill="#000000" stroke="none">
<path d="M1530 3460 c-250 -34 -529 -138 -730 -273 -261 -174 -478 -422 -609
-697 -450 -942 35 -2074 1024 -2390 206 -65 267 -74 525 -74 210 -1 247 2 345
23 537 115 977 454 1215 936 350 712 163 1579 -450 2088 -224 185 -485 309
-776 368 -122 24 -428 35 -544 19z m312 -1281 c181 -39 319 -186 348 -372 30
-193 -74 -383 -258 -470 -63 -30 -74 -32 -183 -32 -113 0 -116 1 -191 38 -89
44 -172 126 -212 210 -156 330 139 702 496 626z"/>
</g>
</svg>
